{"glyphs":{"0":{"ha":678,"x_min":0,"x_max":610,"o":"m 610 271 q 339 0 610 0 l 339 203 q 407 271 407 203 l 407 610 q 339 678 407 678 l 271 678 q 203 610 203 678 l 203 271 q 271 203 203 203 l 271 0 q 0 271 0 0 l 0 610 q 271 882 0 882 l 339 882 q 610 610 610 882 l 610 271 z "},"1":{"ha":407,"x_min":0,"x_max":339,"o":"m 0 882 l 339 882 l 339 678 l 0 678 l 0 882 m 339 610 l 339 0 l 136 0 l 136 610 l 339 610 z "},"2":{"ha":678,"x_min":0,"x_max":610,"o":"m 407 203 l 407 271 l 610 339 l 610 0 l 0 0 l 0 271 q 271 543 0 543 l 271 339 q 203 271 203 339 l 203 203 l 407 203 m 271 678 q 203 610 203 678 l 0 610 q 271 882 0 882 l 339 882 q 610 610 610 882 q 339 339 610 339 l 339 543 q 407 610 407 543 q 339 678 407 678 l 271 678 z "},"3":{"ha":678,"x_min":0,"x_max":610,"o":"m 271 339 l 136 339 l 136 543 l 271 543 l 271 339 m 271 678 q 203 610 203 678 l 0 610 q 271 882 0 882 l 339 882 q 610 610 610 882 q 570 441 610 505 q 610 271 610 376 q 339 0 610 0 l 271 0 q 0 271 0 0 l 203 271 q 271 203 203 203 l 339 203 q 407 271 407 203 q 339 339 407 339 l 339 543 q 407 610 407 543 q 339 678 407 678 l 271 678 z "},"4":{"ha":678,"x_min":0,"x_max":610,"o":"m 543 475 l 339 475 l 339 882 l 543 882 l 543 475 m 0 882 l 203 882 l 203 407 l 610 407 l 610 203 l 543 203 l 543 0 l 339 0 l 339 203 l 0 203 l 0 882 z "},"5":{"ha":678,"x_min":0,"x_max":610,"o":"m 271 0 q 0 271 0 0 l 203 271 q 271 203 203 203 l 339 203 q 407 271 407 203 l 407 339 q 339 407 407 407 l 339 610 q 610 339 610 610 l 610 271 q 339 0 610 0 l 271 0 m 203 606 q 271 610 235 610 l 271 407 q 203 339 203 407 l 0 339 l 0 882 l 610 882 l 610 678 l 203 678 l 203 606 z "},"6":{"ha":678,"x_min":0,"x_max":610,"o":"m 610 271 q 339 0 610 0 l 339 203 q 407 271 407 203 q 339 339 407 339 l 339 543 q 610 271 610 543 m 339 882 q 610 610 610 882 l 407 610 q 339 678 407 678 l 271 678 q 203 610 203 678 l 203 538 q 271 543 235 543 l 271 339 q 203 271 203 339 q 271 203 203 203 l 271 0 q 0 271 0 0 l 0 610 q 271 882 0 882 l 339 882 z "},"7":{"ha":678,"x_min":-34,"x_max":644,"o":"m -34 0 l 420 882 l 644 882 l 190 0 l -34 0 m 248 678 l 0 678 l 0 882 l 353 882 l 248 678 z "},"8":{"ha":678,"x_min":0,"x_max":610,"o":"m 407 610 q 339 678 407 678 l 339 882 q 610 610 610 882 q 570 441 610 505 q 610 271 610 376 q 339 0 610 0 l 339 203 q 407 271 407 203 q 339 339 407 339 l 271 339 q 203 271 203 339 q 271 203 203 203 l 271 0 q 0 271 0 0 q 41 441 0 376 q 0 610 0 505 q 271 882 0 882 l 271 678 q 203 610 203 678 q 271 543 203 543 l 339 543 q 407 610 407 543 z "},"9":{"ha":678,"x_min":0,"x_max":610,"o":"m 0 271 l 203 271 q 271 203 203 203 l 271 0 q 0 271 0 0 m 0 610 q 271 882 0 882 l 271 678 q 203 610 203 678 q 271 543 203 543 l 339 543 q 407 610 407 543 q 339 678 407 678 l 339 882 q 610 610 610 882 l 610 271 q 339 0 610 0 l 339 203 q 407 271 407 203 l 407 344 q 339 339 376 339 l 271 339 q 0 610 0 339 z "},"\u0000":{"ha":0,"x_min":0,"x_max":0,"o":""}," ":{"ha":271,"x_min":0,"x_max":0,"o":""},"!":{"ha":271,"x_min":0,"x_max":203,"o":"m 0 0 l 0 203 l 203 203 l 203 0 l 0 0 m 0 271 l 0 882 l 203 882 l 203 271 l 0 271 z "},"\"":{"ha":543,"x_min":0,"x_max":475,"o":"m 0 543 l 0 882 l 203 882 l 203 543 l 0 543 m 271 543 l 271 882 l 475 882 l 475 543 l 271 543 z "},"#":{"ha":746,"x_min":0,"x_max":678,"o":"m 407 678 l 407 882 l 610 882 l 610 678 l 678 678 l 678 475 l 610 475 l 610 407 l 678 407 l 678 203 l 610 203 l 610 0 l 407 0 l 407 203 l 271 203 l 271 0 l 68 0 l 68 203 l 0 203 l 0 407 l 407 407 l 407 475 l 0 475 l 0 678 l 68 678 l 68 882 l 271 882 l 271 678 l 407 678 z "},"$":{"ha":678,"x_min":0,"x_max":610,"o":"m 407 877 q 610 610 610 845 l 407 610 q 339 678 407 678 l 271 678 q 203 610 203 678 q 271 543 203 543 l 271 339 q 0 610 0 339 q 203 877 0 845 l 203 1017 l 407 1017 l 407 877 m 203 5 q 0 271 0 37 l 203 271 q 271 203 203 203 l 339 203 q 407 271 407 203 q 339 339 407 339 l 339 543 q 610 271 610 543 q 407 5 610 37 l 407 -136 l 203 -136 l 203 5 z "},"%":{"ha":678,"x_min":-34,"x_max":644,"o":"m 644 882 l 190 0 l -34 0 l 420 882 l 644 882 m 610 0 l 339 0 l 339 271 l 610 271 l 610 0 m 271 610 l 0 610 l 0 882 l 271 882 l 271 610 z "},"&":{"ha":746,"x_min":0,"x_max":678,"o":"m 271 882 l 475 882 l 475 678 l 271 678 q 203 610 203 678 q 271 543 203 543 l 271 339 q 203 271 203 339 q 271 203 203 203 l 339 203 q 407 271 407 203 l 610 271 q 678 203 610 203 l 678 0 q 509 41 573 0 q 339 0 444 0 l 271 0 q 0 271 0 0 q 41 441 0 376 q 0 610 0 505 q 271 882 0 882 m 610 543 l 678 543 l 678 339 l 339 339 l 339 543 l 407 543 l 407 610 l 610 610 l 610 543 z "},"'":{"ha":271,"x_min":0,"x_max":203,"o":"m 0 543 l 0 882 l 203 882 l 203 543 l 0 543 z "},"(":{"ha":407,"x_min":0,"x_max":339,"o":"m 271 949 l 339 949 l 339 746 l 271 746 q 203 678 203 746 l 203 203 q 271 136 203 136 l 339 136 l 339 -68 l 271 -68 q 0 203 0 -68 l 0 678 q 271 949 0 949 z "},")":{"ha":407,"x_min":0,"x_max":339,"o":"m 68 949 q 339 678 339 949 l 339 203 q 68 -68 339 -68 l 0 -68 l 0 136 l 68 136 q 136 203 136 136 l 136 678 q 68 746 136 746 l 0 746 l 0 949 l 68 949 z "},"*":{"ha":475,"x_min":0,"x_max":407,"o":"m 305 780 l 407 780 l 407 576 l 305 576 l 305 475 l 102 475 l 102 576 l 0 576 l 0 780 l 102 780 l 102 882 l 305 882 l 305 780 z "},"+":{"ha":475,"x_min":0,"x_max":407,"o":"m 305 543 l 407 543 l 407 339 l 305 339 l 305 237 l 102 237 l 102 339 l 0 339 l 0 543 l 102 543 l 102 644 l 305 644 l 305 543 z "},",":{"ha":271,"x_min":0,"x_max":203,"o":"m 0 -136 l 0 203 l 203 203 l 203 -136 l 0 -136 z "},"-":{"ha":475,"x_min":0,"x_max":407,"o":"m 407 339 l 0 339 l 0 543 l 407 543 l 407 339 z "},".":{"ha":271,"x_min":0,"x_max":203,"o":"m 0 0 l 0 203 l 203 203 l 203 0 l 0 0 z "},"/":{"ha":678,"x_min":-34,"x_max":644,"o":"m 644 882 l 190 0 l -34 0 l 420 882 l 644 882 z "},":":{"ha":271,"x_min":0,"x_max":203,"o":"m 0 0 l 0 203 l 203 203 l 203 0 l 0 0 m 0 491 l 0 694 l 203 694 l 203 491 l 0 491 z "},";":{"ha":271,"x_min":0,"x_max":203,"o":"m 0 -136 l 0 203 l 203 203 l 203 -136 l 0 -136 m 0 491 l 0 694 l 203 694 l 203 491 l 0 491 z "},"<":{"ha":407,"x_min":0,"x_max":339,"o":"m 271 949 l 339 949 l 339 746 l 271 746 q 203 678 203 746 l 203 203 q 271 136 203 136 l 339 136 l 339 -68 l 271 -68 q 0 203 0 -68 l 0 678 q 271 949 0 949 z "},"=":{"ha":475,"x_min":0,"x_max":407,"o":"m 407 203 l 0 203 l 0 407 l 407 407 l 407 203 m 407 475 l 0 475 l 0 678 l 407 678 l 407 475 z "},">":{"ha":407,"x_min":0,"x_max":339,"o":"m 68 949 q 339 678 339 949 l 339 203 q 68 -68 339 -68 l 0 -68 l 0 136 l 68 136 q 136 203 136 136 l 136 678 q 68 746 136 746 l 0 746 l 0 949 l 68 949 z "},"?":{"ha":678,"x_min":0,"x_max":610,"o":"m 0 610 q 271 882 0 882 l 271 678 q 203 610 203 678 l 0 610 m 407 610 q 339 678 407 678 l 339 882 q 610 610 610 882 q 339 339 610 339 l 339 271 l 136 271 l 136 543 l 339 543 q 407 610 407 543 m 339 203 l 339 0 l 136 0 l 136 203 l 339 203 z "},"@":{"ha":814,"x_min":0,"x_max":746,"o":"m 271 882 l 339 882 l 339 678 l 271 678 q 203 610 203 678 l 203 271 q 271 203 203 203 l 339 203 l 339 0 l 271 0 q 0 271 0 0 l 0 610 q 271 882 0 882 m 475 0 l 407 0 l 407 203 l 475 203 q 543 271 543 203 l 543 610 q 475 678 543 678 l 407 678 l 407 882 l 475 882 q 746 610 746 882 l 746 271 q 475 0 746 0 m 475 271 l 271 271 l 271 610 l 475 610 l 475 271 z "},"A":{"ha":678,"x_min":-68,"x_max":678,"o":"m 420 882 l 678 0 l 461 0 l 305 534 l 239 305 l 297 305 l 357 102 l 179 102 l 149 0 l -68 0 l 190 882 l 420 882 z "},"B":{"ha":678,"x_min":0,"x_max":610,"o":"m 407 610 q 339 678 407 678 l 203 678 l 203 203 l 339 203 q 407 271 407 203 q 339 339 407 339 l 271 339 l 271 543 l 339 543 q 407 610 407 543 m 339 882 q 610 610 610 882 q 570 441 610 505 q 610 271 610 376 q 339 0 610 0 l 0 0 l 0 882 l 339 882 z "},"C":{"ha":678,"x_min":0,"x_max":610,"o":"m 407 271 l 407 407 l 610 339 l 610 271 q 339 0 610 0 l 271 0 q 0 271 0 0 l 0 610 q 271 882 0 882 l 339 882 q 610 610 610 882 l 610 543 l 407 475 l 407 610 q 339 678 407 678 l 271 678 q 203 610 203 678 l 203 271 q 271 203 203 203 l 339 203 q 407 271 407 203 z "},"D":{"ha":678,"x_min":0,"x_max":610,"o":"m 203 678 l 203 0 l 0 0 l 0 882 l 339 882 q 610 610 610 882 l 610 271 q 339 0 610 0 l 271 0 l 271 203 l 339 203 q 407 271 407 203 l 407 610 q 339 678 407 678 l 203 678 z "},"E":{"ha":610,"x_min":0,"x_max":543,"o":"m 543 882 l 543 678 l 203 678 l 203 203 l 543 203 l 543 0 l 0 0 l 0 882 l 543 882 m 543 339 l 271 339 l 271 543 l 543 543 l 543 339 z "},"F":{"ha":610,"x_min":0,"x_max":543,"o":"m 203 678 l 203 0 l 0 0 l 0 882 l 543 882 l 543 678 l 203 678 m 543 339 l 271 339 l 271 543 l 543 543 l 543 339 z "},"G":{"ha":678,"x_min":0,"x_max":610,"o":"m 339 882 q 610 610 610 882 l 407 610 q 339 678 407 678 l 271 678 q 203 610 203 678 l 203 271 q 271 203 203 203 l 339 203 l 339 0 l 271 0 q 0 271 0 0 l 0 610 q 271 882 0 882 l 339 882 m 610 0 l 407 0 l 407 339 l 271 339 l 271 543 l 610 543 l 610 0 z "},"H":{"ha":678,"x_min":0,"x_max":610,"o":"m 0 271 l 203 271 l 203 0 l 0 0 l 0 271 m 610 0 l 407 0 l 407 339 l 0 339 l 0 882 l 203 882 l 203 543 l 407 543 l 407 882 l 610 882 l 610 0 z "},"I":{"ha":271,"x_min":0,"x_max":203,"o":"m 0 0 l 0 882 l 203 882 l 203 0 l 0 0 z "},"J":{"ha":678,"x_min":0,"x_max":610,"o":"m 610 271 q 339 0 610 0 l 339 203 q 407 271 407 203 l 407 882 l 610 882 l 610 271 m 203 271 q 271 203 203 203 l 271 0 q 0 271 0 0 l 0 339 l 203 407 l 203 271 z "},"K":{"ha":678,"x_min":0,"x_max":644,"o":"m 458 362 l 644 0 l 420 0 l 346 144 l 458 362 m 271 592 l 420 882 l 644 882 l 271 158 l 271 592 m 0 0 l 0 882 l 203 882 l 203 0 l 0 0 z "},"L":{"ha":543,"x_min":0,"x_max":475,"o":"m 475 0 l 0 0 l 0 203 l 475 203 l 475 0 m 0 271 l 0 882 l 203 882 l 203 271 l 0 271 z "},"M":{"ha":882,"x_min":0,"x_max":814,"o":"m 251 882 l 509 0 l 292 0 l 203 302 l 203 0 l 0 0 l 0 882 l 251 882 m 610 302 l 556 116 l 448 487 l 563 882 l 814 882 l 814 0 l 610 0 l 610 302 z "},"N":{"ha":678,"x_min":0,"x_max":610,"o":"m 203 421 l 203 0 l 0 0 l 0 882 l 190 882 l 339 592 l 339 158 l 203 421 m 407 882 l 610 882 l 610 0 l 420 0 l 407 26 l 407 882 z "},"O":{"ha":678,"x_min":0,"x_max":610,"o":"m 610 271 q 339 0 610 0 l 339 203 q 407 271 407 203 l 407 610 q 339 678 407 678 l 271 678 q 203 610 203 678 l 203 271 q 271 203 203 203 l 271 0 q 0 271 0 0 l 0 610 q 271 882 0 882 l 339 882 q 610 610 610 882 l 610 271 z "},"P":{"ha":678,"x_min":0,"x_max":610,"o":"m 203 678 l 203 0 l 0 0 l 0 882 l 339 882 q 610 610 610 882 q 339 339 610 339 l 271 339 l 271 543 l 339 543 q 407 610 407 543 q 339 678 407 678 l 203 678 z "},"Q":{"ha":678,"x_min":0,"x_max":610,"o":"m 203 271 q 271 203 203 203 l 271 0 q 0 271 0 0 l 0 610 q 271 882 0 882 l 339 882 q 610 610 610 882 l 610 271 q 536 62 610 130 l 597 -149 l 393 -149 l 351 0 l 339 0 l 339 203 q 407 271 407 203 l 407 610 q 339 678 407 678 l 271 678 q 203 610 203 678 l 203 271 z "},"R":{"ha":678,"x_min":0,"x_max":610,"o":"m 203 678 l 203 0 l 0 0 l 0 882 l 339 882 q 610 610 610 882 q 503 376 610 439 l 610 0 l 407 0 l 252 543 l 339 543 q 407 610 407 543 q 339 678 407 678 l 203 678 z "},"S":{"ha":678,"x_min":0,"x_max":610,"o":"m 339 882 q 610 610 610 882 l 407 610 q 339 678 407 678 l 271 678 q 203 610 203 678 q 271 543 203 543 l 339 543 q 610 271 610 543 q 339 0 610 0 l 271 0 q 0 271 0 0 l 203 271 q 271 203 203 203 l 339 203 q 407 271 407 203 q 339 339 407 339 l 271 339 q 0 610 0 339 q 271 882 0 882 l 339 882 z "},"T":{"ha":678,"x_min":0,"x_max":610,"o":"m 407 0 l 203 0 l 203 610 l 407 610 l 407 0 m 610 678 l 0 678 l 0 882 l 610 882 l 610 678 z "},"U":{"ha":678,"x_min":0,"x_max":610,"o":"m 610 271 q 339 0 610 0 l 339 203 q 407 271 407 203 l 407 882 l 610 882 l 610 271 m 203 271 q 271 203 203 203 l 271 0 q 0 271 0 0 l 0 882 l 203 882 l 203 271 z "},"V":{"ha":678,"x_min":-68,"x_max":678,"o":"m -68 882 l 149 882 l 407 0 l 190 0 l -68 882 m 346 487 l 461 882 l 678 882 l 454 116 l 346 487 z "},"W":{"ha":1017,"x_min":-68,"x_max":949,"o":"m -68 882 l 144 882 l 395 0 l 183 0 l -68 882 m 511 610 l 685 0 l 474 0 l 300 610 l 511 610 m 626 487 l 738 882 l 949 882 l 732 116 l 626 487 z "},"X":{"ha":678,"x_min":-34,"x_max":644,"o":"m -34 0 l 420 882 l 644 882 l 190 0 l -34 0 m 458 362 l 644 0 l 420 0 l 346 144 l 458 362 m 153 519 l -34 882 l 190 882 l 264 737 l 153 519 z "},"Y":{"ha":678,"x_min":-34,"x_max":644,"o":"m 153 519 l -34 882 l 190 882 l 264 737 l 153 519 m 203 421 l 193 441 l 420 882 l 644 882 l 407 421 l 407 0 l 203 0 l 203 421 z "},"Z":{"ha":678,"x_min":-34,"x_max":644,"o":"m -34 0 l 420 882 l 644 882 l 190 0 l -34 0 m 248 678 l 0 678 l 0 882 l 353 882 l 248 678 m 363 203 l 610 203 l 610 0 l 258 0 l 363 203 z "},"[":{"ha":407,"x_min":0,"x_max":339,"o":"m 339 949 l 339 746 l 203 746 l 203 136 l 339 136 l 339 -68 l 0 -68 l 0 949 l 339 949 z "},"\\":{"ha":678,"x_min":-34,"x_max":644,"o":"m -34 882 l 190 882 l 644 0 l 420 0 l -34 882 z "},"]":{"ha":407,"x_min":0,"x_max":339,"o":"m 0 949 l 339 949 l 339 -68 l 0 -68 l 0 136 l 136 136 l 136 746 l 0 746 l 0 949 z "},"^":{"ha":271,"x_min":0,"x_max":203,"o":"m 0 543 l 0 882 l 203 882 l 203 543 l 0 543 z "},"_":{"ha":610,"x_min":0,"x_max":543,"o":"m 543 0 l 0 0 l 0 203 l 543 203 l 543 0 z "},"`":{"ha":271,"x_min":0,"x_max":203,"o":"m 0 543 l 0 882 l 203 882 l 203 543 l 0 543 z "},"a":{"ha":678,"x_min":-68,"x_max":678,"o":"m 420 882 l 678 0 l 461 0 l 305 534 l 239 305 l 297 305 l 357 102 l 179 102 l 149 0 l -68 0 l 190 882 l 420 882 z "},"b":{"ha":678,"x_min":0,"x_max":610,"o":"m 407 610 q 339 678 407 678 l 203 678 l 203 203 l 339 203 q 407 271 407 203 q 339 339 407 339 l 271 339 l 271 543 l 339 543 q 407 610 407 543 m 339 882 q 610 610 610 882 q 570 441 610 505 q 610 271 610 376 q 339 0 610 0 l 0 0 l 0 882 l 339 882 z "},"c":{"ha":678,"x_min":0,"x_max":610,"o":"m 407 271 l 407 407 l 610 339 l 610 271 q 339 0 610 0 l 271 0 q 0 271 0 0 l 0 610 q 271 882 0 882 l 339 882 q 610 610 610 882 l 610 543 l 407 475 l 407 610 q 339 678 407 678 l 271 678 q 203 610 203 678 l 203 271 q 271 203 203 203 l 339 203 q 407 271 407 203 z "},"d":{"ha":678,"x_min":0,"x_max":610,"o":"m 203 678 l 203 0 l 0 0 l 0 882 l 339 882 q 610 610 610 882 l 610 271 q 339 0 610 0 l 271 0 l 271 203 l 339 203 q 407 271 407 203 l 407 610 q 339 678 407 678 l 203 678 z "},"e":{"ha":610,"x_min":0,"x_max":543,"o":"m 543 882 l 543 678 l 203 678 l 203 203 l 543 203 l 543 0 l 0 0 l 0 882 l 543 882 m 543 339 l 271 339 l 271 543 l 543 543 l 543 339 z "},"f":{"ha":610,"x_min":0,"x_max":543,"o":"m 203 678 l 203 0 l 0 0 l 0 882 l 543 882 l 543 678 l 203 678 m 543 339 l 271 339 l 271 543 l 543 543 l 543 339 z "},"g":{"ha":678,"x_min":0,"x_max":610,"o":"m 339 882 q 610 610 610 882 l 407 610 q 339 678 407 678 l 271 678 q 203 610 203 678 l 203 271 q 271 203 203 203 l 339 203 l 339 0 l 271 0 q 0 271 0 0 l 0 610 q 271 882 0 882 l 339 882 m 610 0 l 407 0 l 407 339 l 271 339 l 271 543 l 610 543 l 610 0 z "},"h":{"ha":678,"x_min":0,"x_max":610,"o":"m 0 271 l 203 271 l 203 0 l 0 0 l 0 271 m 610 0 l 407 0 l 407 339 l 0 339 l 0 882 l 203 882 l 203 543 l 407 543 l 407 882 l 610 882 l 610 0 z "},"i":{"ha":271,"x_min":0,"x_max":203,"o":"m 0 0 l 0 882 l 203 882 l 203 0 l 0 0 z "},"j":{"ha":678,"x_min":0,"x_max":610,"o":"m 610 271 q 339 0 610 0 l 339 203 q 407 271 407 203 l 407 882 l 610 882 l 610 271 m 203 271 q 271 203 203 203 l 271 0 q 0 271 0 0 l 0 339 l 203 407 l 203 271 z "},"k":{"ha":678,"x_min":0,"x_max":644,"o":"m 458 362 l 644 0 l 420 0 l 346 144 l 458 362 m 271 592 l 420 882 l 644 882 l 271 158 l 271 592 m 0 0 l 0 882 l 203 882 l 203 0 l 0 0 z "},"l":{"ha":543,"x_min":0,"x_max":475,"o":"m 475 0 l 0 0 l 0 203 l 475 203 l 475 0 m 0 271 l 0 882 l 203 882 l 203 271 l 0 271 z "},"m":{"ha":882,"x_min":0,"x_max":814,"o":"m 251 882 l 509 0 l 292 0 l 203 302 l 203 0 l 0 0 l 0 882 l 251 882 m 610 302 l 556 116 l 448 487 l 563 882 l 814 882 l 814 0 l 610 0 l 610 302 z "},"n":{"ha":678,"x_min":0,"x_max":610,"o":"m 203 421 l 203 0 l 0 0 l 0 882 l 190 882 l 339 592 l 339 158 l 203 421 m 407 882 l 610 882 l 610 0 l 420 0 l 407 26 l 407 882 z "},"o":{"ha":678,"x_min":0,"x_max":610,"o":"m 610 271 q 339 0 610 0 l 339 203 q 407 271 407 203 l 407 610 q 339 678 407 678 l 271 678 q 203 610 203 678 l 203 271 q 271 203 203 203 l 271 0 q 0 271 0 0 l 0 610 q 271 882 0 882 l 339 882 q 610 610 610 882 l 610 271 z "},"p":{"ha":678,"x_min":0,"x_max":610,"o":"m 203 678 l 203 0 l 0 0 l 0 882 l 339 882 q 610 610 610 882 q 339 339 610 339 l 271 339 l 271 543 l 339 543 q 407 610 407 543 q 339 678 407 678 l 203 678 z "},"q":{"ha":678,"x_min":0,"x_max":610,"o":"m 203 271 q 271 203 203 203 l 271 0 q 0 271 0 0 l 0 610 q 271 882 0 882 l 339 882 q 610 610 610 882 l 610 271 q 536 62 610 130 l 597 -149 l 393 -149 l 351 0 l 339 0 l 339 203 q 407 271 407 203 l 407 610 q 339 678 407 678 l 271 678 q 203 610 203 678 l 203 271 z "},"r":{"ha":678,"x_min":0,"x_max":610,"o":"m 203 678 l 203 0 l 0 0 l 0 882 l 339 882 q 610 610 610 882 q 503 376 610 439 l 610 0 l 407 0 l 252 543 l 339 543 q 407 610 407 543 q 339 678 407 678 l 203 678 z "},"s":{"ha":678,"x_min":0,"x_max":610,"o":"m 339 882 q 610 610 610 882 l 407 610 q 339 678 407 678 l 271 678 q 203 610 203 678 q 271 543 203 543 l 339 543 q 610 271 610 543 q 339 0 610 0 l 271 0 q 0 271 0 0 l 203 271 q 271 203 203 203 l 339 203 q 407 271 407 203 q 339 339 407 339 l 271 339 q 0 610 0 339 q 271 882 0 882 l 339 882 z "},"t":{"ha":678,"x_min":0,"x_max":610,"o":"m 407 0 l 203 0 l 203 610 l 407 610 l 407 0 m 610 678 l 0 678 l 0 882 l 610 882 l 610 678 z "},"u":{"ha":678,"x_min":0,"x_max":610,"o":"m 610 271 q 339 0 610 0 l 339 203 q 407 271 407 203 l 407 882 l 610 882 l 610 271 m 203 271 q 271 203 203 203 l 271 0 q 0 271 0 0 l 0 882 l 203 882 l 203 271 z "},"v":{"ha":678,"x_min":-68,"x_max":678,"o":"m -68 882 l 149 882 l 407 0 l 190 0 l -68 882 m 346 487 l 461 882 l 678 882 l 454 116 l 346 487 z "},"w":{"ha":1017,"x_min":-68,"x_max":949,"o":"m -68 882 l 144 882 l 395 0 l 183 0 l -68 882 m 511 610 l 685 0 l 474 0 l 300 610 l 511 610 m 626 487 l 738 882 l 949 882 l 732 116 l 626 487 z "},"x":{"ha":678,"x_min":-34,"x_max":644,"o":"m -34 0 l 420 882 l 644 882 l 190 0 l -34 0 m 458 362 l 644 0 l 420 0 l 346 144 l 458 362 m 153 519 l -34 882 l 190 882 l 264 737 l 153 519 z "},"y":{"ha":678,"x_min":-34,"x_max":644,"o":"m 153 519 l -34 882 l 190 882 l 264 737 l 153 519 m 203 421 l 193 441 l 420 882 l 644 882 l 407 421 l 407 0 l 203 0 l 203 421 z "},"z":{"ha":678,"x_min":-34,"x_max":644,"o":"m -34 0 l 420 882 l 644 882 l 190 0 l -34 0 m 248 678 l 0 678 l 0 882 l 353 882 l 248 678 m 363 203 l 610 203 l 610 0 l 258 0 l 363 203 z "},"{":{"ha":475,"x_min":0,"x_max":407,"o":"m 339 949 l 407 949 l 407 746 l 339 746 q 271 678 271 746 l 271 610 q 231 441 271 505 q 271 271 271 376 l 271 203 q 339 136 271 136 l 407 136 l 407 -68 l 339 -68 q 68 203 68 -68 l 68 271 q 0 339 68 339 l 0 543 q 68 610 68 543 l 68 678 q 339 949 68 949 z "},"|":{"ha":271,"x_min":0,"x_max":203,"o":"m 0 -68 l 0 949 l 203 949 l 203 -68 l 0 -68 z "},"}":{"ha":475,"x_min":0,"x_max":407,"o":"m 68 949 q 339 678 339 949 l 339 610 q 407 543 339 543 l 407 339 q 339 271 339 339 l 339 203 q 68 -68 339 -68 l 0 -68 l 0 136 l 68 136 q 136 203 136 136 l 136 271 q 176 441 136 376 q 136 610 136 505 l 136 678 q 68 746 136 746 l 0 746 l 0 949 l 68 949 z "},"~":{"ha":475,"x_min":0,"x_max":407,"o":"m 407 339 l 0 339 l 0 543 l 407 543 l 407 339 z "}}}
